<svg version="1.1" id="Layer_1" xmlns="http://www.w3.org/2000/svg" xmlns:xlink="http://www.w3.org/1999/xlink" x="0px" y="0px"
	 width="100%" viewBox="0 0 1024 1024" enable-background="new 0 0 1024 1024" xml:space="preserve">
<path fill="#FEFEFE" opacity="1.000000" stroke="none" 
	d="
M569.000000,1025.000000 
	C379.333344,1025.000000 190.166672,1025.000000 1.000000,1025.000000 
	C1.000000,683.666687 1.000000,342.333344 1.000000,1.000000 
	C342.333344,1.000000 683.666687,1.000000 1025.000000,1.000000 
	C1025.000000,342.333344 1025.000000,683.666687 1025.000000,1025.000000 
	C873.166687,1025.000000 721.333313,1025.000000 569.000000,1025.000000 
M579.469849,531.732361 
	C579.607300,531.424683 579.744751,531.117004 579.843628,530.895996 
	C579.843628,530.895996 579.780029,530.825562 580.483765,531.003235 
	C582.296143,532.668335 584.108521,534.333435 586.086365,536.813354 
	C586.963989,537.806763 587.721252,539.480957 588.742676,539.661621 
	C591.434021,540.137573 594.240173,539.964783 597.107483,540.699341 
	C599.306335,540.057617 602.791382,540.045959 603.470398,538.659790 
	C605.795532,533.913147 609.483887,533.639160 614.135620,534.563354 
	C615.161865,536.163391 616.188110,537.763489 617.100098,540.183777 
	C617.276794,542.162903 616.716431,544.923889 617.797852,545.943359 
	C619.551880,547.596802 622.575317,549.236511 624.718750,548.869934 
	C629.364624,548.075500 633.850464,546.058411 632.840210,539.378296 
	C632.840210,539.378296 632.912292,539.004700 633.612122,538.911255 
	C635.442505,537.273376 637.272827,535.635498 639.334290,534.812561 
	C639.334290,536.359192 639.334290,537.905823 639.334290,539.503052 
	C641.549500,539.680420 643.276611,539.818726 645.008850,540.765869 
	C644.982117,545.315918 647.025085,547.340271 651.771912,547.067444 
	C656.083923,546.819580 657.475281,544.239685 657.951599,540.667969 
	C658.492798,536.609558 655.731812,536.042786 652.397034,535.075562 
	C652.397034,531.563660 652.397034,528.051758 652.397034,524.112366 
	C656.187012,524.353577 659.099304,524.539001 662.012756,525.534851 
	C663.963135,534.233276 675.043030,539.014160 683.754700,534.900879 
	C683.937744,533.435059 684.515747,531.867737 684.200195,530.507812 
	C683.856262,529.025391 682.556458,526.497070 681.893555,526.565186 
	C678.004089,526.965332 677.776489,524.120789 677.258179,521.182068 
	C679.763672,519.092651 682.269226,517.003235 685.548584,514.968140 
	C686.640015,515.540344 687.737854,516.100891 688.821594,516.687256 
	C690.848450,517.784119 692.867310,518.895874 695.075317,520.910889 
	C694.764648,525.829285 694.548828,530.756287 694.108398,535.663025 
	C693.834778,538.711853 694.961548,539.818115 698.025574,539.759644 
	C709.669800,539.537476 707.436279,541.107849 707.658813,530.966675 
	C707.673279,530.308899 707.825500,529.654175 708.660706,529.077515 
	C709.772034,530.914368 711.096924,532.658264 711.945801,534.609253 
	C713.296997,537.715027 714.110291,541.063110 715.554138,544.118164 
	C717.427368,548.081909 721.246033,548.414856 724.888428,547.783997 
	C728.714722,547.121338 730.161682,544.198975 730.871643,540.260254 
	C733.876160,539.657166 736.876953,539.034119 739.887634,538.463501 
	C740.778992,538.294617 741.704529,538.157410 742.603943,538.204407 
	C747.213684,538.445251 751.820068,538.750977 757.243774,539.020752 
	C762.064392,538.803894 767.803101,541.167908 770.802673,534.843018 
	C771.613586,535.857117 772.424500,536.871216 772.605957,538.337830 
	C770.981140,541.735291 769.877625,545.131042 772.813843,548.866516 
	C784.457153,546.699036 797.053223,546.890015 805.985535,536.035095 
	C809.845642,540.041626 815.137390,539.592102 820.017334,541.237488 
	C821.823364,547.078735 825.046997,549.306274 829.359985,547.693481 
	C835.007324,545.581726 836.979919,541.670776 835.173462,536.309570 
	C836.254944,535.170410 837.336426,534.031311 838.549744,532.753296 
	C837.583252,531.550659 836.712280,530.467041 835.895325,528.711792 
	C834.958252,528.041138 834.021240,527.370422 832.319397,526.498535 
	C831.584778,526.766968 830.850098,527.035400 829.667480,526.656982 
	C826.238342,525.245178 823.696777,525.667847 822.178223,530.089600 
	C817.379639,529.992065 812.789734,529.502502 811.363098,523.789246 
	C811.580627,523.266785 811.798157,522.744385 812.936523,522.048218 
	C822.431580,522.048218 831.926575,522.048218 842.032532,522.048218 
	C841.775330,518.255554 841.568115,515.199585 842.146973,511.903900 
	C842.718506,511.584595 843.718140,511.339661 843.788696,510.933319 
	C844.124268,509.001556 844.790833,506.826355 844.209351,505.123871 
	C843.666809,503.535553 841.702087,502.432983 840.363342,501.116608 
	C839.458557,502.047272 838.553772,502.977936 837.090820,503.512054 
	C835.996643,502.372192 834.902527,501.232330 834.446228,499.569031 
	C834.845337,496.511230 836.781067,492.820190 832.488220,491.191589 
	C827.997070,489.487732 824.382141,491.558533 822.111084,496.055237 
	C817.079712,497.056610 812.048340,498.057983 806.888672,498.317749 
	C801.751587,493.603607 796.399963,497.769257 790.223694,497.908600 
	C787.474487,497.863464 784.725281,497.818359 781.739319,497.416992 
	C781.536194,497.203705 781.290894,497.064789 780.690063,496.166016 
	C780.733337,493.270569 780.776611,490.375122 780.929199,486.578033 
	C780.343567,485.083710 779.519958,482.240875 779.207703,482.295990 
	C773.935913,483.226379 767.816467,480.327881 763.452576,485.373596 
	C761.522400,487.605499 759.648132,489.944183 758.149109,492.471924 
	C756.958923,494.478851 756.378235,496.847321 755.281250,499.692383 
	C758.179260,499.841431 759.637634,499.916412 761.311890,500.854828 
	C761.311890,502.814545 761.311890,504.774261 761.311890,506.962036 
	C763.497070,507.157227 765.272461,507.315857 767.224731,507.742035 
	C767.389587,507.890930 767.582642,507.975922 768.077759,508.630951 
	C768.035278,509.085999 767.992859,509.541016 767.116943,510.003876 
	C763.235840,509.068939 759.354797,508.134003 755.140381,506.628845 
	C752.571838,499.240906 745.717529,497.039520 739.479858,495.627167 
	C735.078735,494.630615 729.948303,496.854950 724.928345,496.915771 
	C723.719727,496.111084 722.511108,495.306396 721.302429,494.501709 
	C720.531738,496.292633 719.761108,498.083557 718.410095,500.200653 
	C718.619019,501.444550 718.827881,502.688477 718.614380,504.513458 
	C717.802979,505.965576 716.991577,507.417725 716.180237,508.869873 
	C717.507385,509.578125 718.813843,510.837311 720.165588,510.887909 
	C723.749329,511.022003 724.179382,513.114868 723.294922,516.096924 
	C720.991699,517.789124 718.688477,519.481323 715.749451,520.820618 
	C713.578064,518.293701 712.318054,514.541565 707.694580,514.087585 
	C707.753601,507.391510 707.812561,500.695465 708.576782,493.912689 
	C709.638062,492.541840 710.800354,491.236664 711.742432,489.788269 
	C715.028809,484.735748 714.119324,482.964539 707.508789,481.498474 
	C706.672241,481.023224 705.835754,480.548004 704.923462,479.329926 
	C703.146545,478.240051 701.451416,476.897308 699.523682,476.273682 
	C699.138489,476.149109 697.865662,478.768524 696.258911,480.417877 
	C695.785767,483.944427 695.312561,487.470978 694.025208,490.995331 
	C690.289734,491.020569 686.554321,491.045837 682.196228,490.825378 
	C679.092102,488.986389 675.987976,487.147400 672.954651,484.499817 
	C674.629822,480.611328 673.258545,478.320374 669.278442,477.243958 
	C662.791809,475.489624 655.306641,478.191986 650.178650,484.111877 
	C648.786133,484.042603 647.393555,483.973328 645.893250,483.164368 
	C641.511597,478.886139 636.529907,479.076019 631.323059,483.719757 
	C633.133240,488.538330 633.846375,489.119141 639.246887,490.837860 
	C639.175232,492.558655 639.103577,494.279480 638.253052,496.087860 
	C636.182190,496.394409 634.111267,496.700958 631.622681,496.958008 
	C631.622681,496.958008 631.203735,496.920105 631.010864,496.817444 
	C631.010864,496.817444 631.067444,496.606354 630.917175,496.427124 
	C630.744995,496.241058 630.534058,496.172821 629.411682,496.532593 
	C627.565369,496.517731 625.719116,496.502869 623.396545,496.172577 
	C622.301636,496.288635 621.206665,496.404724 619.335693,496.697601 
	C618.541504,496.671631 617.747253,496.645660 616.695984,496.402802 
	C616.465759,496.581421 616.235535,496.760040 615.704102,497.358368 
	C615.554626,497.443878 615.405090,497.529388 614.937134,496.846252 
	C613.157837,495.899963 611.403015,494.903320 609.590881,494.024750 
	C608.341492,493.418976 607.018005,492.963257 605.718506,492.464233 
	C603.538208,491.626984 601.350586,490.808716 599.013123,489.077942 
	C599.013123,486.456848 599.013123,483.835724 599.013123,481.122650 
	C594.379333,481.122650 590.362000,481.122650 586.299500,481.122650 
	C586.127686,483.708160 585.985046,485.854095 585.157227,488.094269 
	C582.391052,491.369568 579.265808,493.536835 574.582336,493.505432 
	C573.029114,493.495026 571.459534,495.943878 569.224670,497.212708 
	C568.802124,497.063629 568.379578,496.914551 567.557617,496.365631 
	C567.191162,496.287384 566.824768,496.209137 565.628906,496.231110 
	C563.087769,496.067230 560.546692,495.903351 558.000183,494.952911 
	C556.753662,493.637604 555.701904,491.498383 554.226929,491.149902 
	C547.906128,489.656372 549.005676,494.358612 548.532227,498.519257 
	C545.993713,500.345276 543.455200,502.171295 540.217163,503.923828 
	C536.007507,500.275146 531.751526,496.677155 527.641174,492.919830 
	C527.065369,492.393494 527.203552,491.086090 527.512878,489.656647 
	C528.395569,487.347992 530.372986,484.757233 529.870117,482.805573 
	C529.304260,480.609253 526.756226,477.910278 524.605408,477.403503 
	C522.159180,476.827148 518.556030,477.656097 516.608215,479.267303 
	C513.458252,481.872772 514.043640,485.562012 515.849976,488.890198 
	C514.660645,490.123474 512.797729,491.180054 512.418396,492.625824 
	C511.559570,495.899963 511.035248,499.374481 511.108276,502.751678 
	C511.198181,506.907074 509.671783,508.582672 505.356140,507.053406 
	C505.356140,503.821289 505.356140,500.589203 505.356140,496.670776 
	C501.493835,496.670776 498.258392,496.670776 495.012512,495.900269 
	C495.002930,495.403381 495.202789,494.683929 494.949738,494.445831 
	C493.333557,492.925110 491.654449,490.439056 489.923676,490.379669 
	C488.374207,490.326538 486.731720,492.985626 485.130280,494.448120 
	C486.895721,495.627136 488.623444,496.870483 490.451355,497.943024 
	C490.951050,498.236206 491.751495,498.016754 492.636932,498.924255 
	C492.547485,502.599670 492.458038,506.275055 491.719879,510.002716 
	C489.786163,512.229370 487.845306,514.449951 485.921356,516.684998 
	C484.790710,517.998474 483.935913,519.817200 482.514282,520.551453 
	C480.218292,521.737305 477.557159,522.216431 474.805084,522.192139 
	C474.779907,517.474243 474.754730,512.756287 475.333893,507.814789 
	C477.548676,505.608795 478.456635,503.536194 474.459961,501.099396 
	C474.271851,499.701599 474.083740,498.303802 473.909973,497.012695 
	C471.968719,496.823944 470.501373,496.681305 468.890472,495.913635 
	C466.835419,492.962982 465.228973,493.431305 463.132874,496.821106 
	C462.647583,500.205627 462.162292,503.590179 460.877594,506.987030 
	C458.472107,507.368347 456.066620,507.749664 453.304932,507.492706 
	C450.938232,502.454712 448.571533,497.416718 446.930206,492.040009 
	C450.567963,488.507782 448.070038,486.060974 445.196198,484.204224 
	C442.243835,482.296661 439.293060,482.192474 437.122253,486.199585 
	C432.424042,485.173492 427.725830,484.147369 423.010590,482.313263 
	C423.090393,478.559845 421.307861,476.646851 417.515320,477.095886 
	C413.337708,477.590515 410.119873,481.450378 409.297882,486.072266 
	C405.448029,489.379700 401.598206,492.687164 396.977417,495.996613 
	C392.333618,495.543701 390.058746,498.397980 389.510101,502.305023 
	C388.941071,506.357208 387.579559,509.170227 382.914673,510.438538 
	C384.160675,511.573669 385.443909,512.226074 386.678497,512.144348 
	C388.798279,512.003967 390.887756,511.405304 393.160950,511.867828 
	C393.782257,515.557800 394.403595,519.247742 394.934906,523.663269 
	C394.110748,524.860718 392.785583,525.973755 392.566681,527.273193 
	C392.110321,529.981934 391.545013,533.059448 392.465942,535.423950 
	C392.838440,536.380310 396.983673,536.013245 399.406433,535.965149 
	C400.666107,535.940125 401.913544,535.298584 403.818207,535.187012 
	C407.886810,536.846252 411.955414,538.505554 416.315308,540.556152 
	C416.579041,540.785767 416.884125,540.876526 417.061737,540.858154 
	C417.061737,540.858154 417.209076,540.770630 417.067474,541.575195 
	C416.679718,544.503906 415.107025,547.951843 416.121155,550.266235 
	C419.477234,557.925171 425.196045,558.255371 432.229431,551.898071 
	C436.252228,554.354492 440.702789,554.207336 444.719696,552.681335 
	C448.285461,551.326721 451.620911,548.946289 454.407928,546.326904 
	C454.944336,545.822754 452.466217,542.112976 451.382141,539.880371 
	C451.240326,539.588318 451.118958,539.286438 451.002136,538.169983 
	C450.361908,534.842041 449.721680,531.514099 449.031952,528.068726 
	C449.031952,528.068726 449.154846,528.035095 449.550323,527.780151 
	C449.792419,527.556824 449.931061,527.281433 449.995728,527.002441 
	C449.995728,527.002441 449.955231,526.961121 450.738647,526.985718 
	C452.887054,526.090942 455.054138,525.237854 457.177673,524.287537 
	C458.711945,523.600952 460.188354,522.785034 461.869049,522.865906 
	C462.257599,525.552551 462.646179,528.239258 462.938690,531.652466 
	C460.689880,534.539490 460.851257,537.212036 463.362366,539.945068 
	C464.312073,540.978760 464.689392,542.520996 465.422028,543.776306 
	C466.199829,545.109131 467.322632,547.570312 467.889099,547.459839 
	C470.018311,547.044312 472.236694,546.094116 473.918884,544.726013 
	C475.051483,543.804871 475.338867,541.844482 476.900818,540.248413 
	C481.776520,539.447021 486.652191,538.645630 491.281403,537.884705 
	C492.430756,538.457153 493.723236,539.483704 495.147644,539.722290 
	C497.386108,540.096985 499.713470,539.940674 502.005951,540.850830 
	C502.124542,547.390198 502.797974,548.610718 509.019257,547.814270 
	C514.910645,547.060181 520.644104,544.925171 526.360962,543.124329 
	C527.157837,542.873291 527.462463,541.059814 528.553955,539.593201 
	C528.789490,538.736023 529.024963,537.878845 529.977478,536.997253 
	C530.924500,536.434692 532.388855,536.087280 532.727905,535.271912 
	C534.105957,531.957947 536.758606,531.166443 540.231995,531.595459 
	C542.486267,533.463013 544.740479,535.330627 546.982300,537.925171 
	C545.999695,540.286194 545.017090,542.647217 544.056396,544.955627 
	C549.633789,548.516296 554.209351,546.860352 557.894165,540.385193 
	C560.596069,540.305176 563.297913,540.225098 566.084412,540.837402 
	C568.426025,545.771179 572.221375,547.302307 574.093811,543.881714 
	C575.058777,542.118835 574.078674,539.291199 574.319824,536.400146 
	C575.612061,535.253418 576.904358,534.106750 578.558838,532.743896 
	C578.778381,532.552429 578.924011,532.315491 578.987793,531.997253 
	C578.987793,531.997253 579.024292,531.992493 579.469849,531.732361 
M217.824509,565.252625 
	C216.252533,567.396118 213.216125,569.651367 213.369644,571.663208 
	C213.942993,579.176697 219.258820,581.138000 225.530258,576.697205 
	C226.873993,575.745667 228.188873,574.753357 229.955719,574.276306 
	C233.869583,576.391296 237.783447,578.506226 240.984970,580.940186 
	C239.679779,583.710449 238.964630,587.056396 236.943436,589.128052 
	C233.041611,593.127380 228.346786,596.342773 224.090942,600.011047 
	C221.743332,602.034546 219.619537,604.317688 217.394821,606.483765 
	C215.197632,610.365295 207.320709,607.254456 208.713440,616.179382 
	C205.124451,616.179382 200.994736,617.421814 198.563156,615.918152 
	C193.651566,612.881042 188.947250,612.843506 183.879471,614.077271 
	C182.524567,614.407227 181.387573,615.632019 180.150528,616.445923 
	C181.351303,617.295288 182.668228,618.998108 183.733658,618.853088 
	C189.830185,618.023376 191.617279,622.525391 193.009125,626.625916 
	C193.533279,628.170166 190.750748,632.490295 190.487549,632.405457 
	C184.477478,630.468384 181.954269,634.765015 179.007385,638.375183 
	C178.809052,638.618225 178.455750,638.867615 178.165161,638.879150 
	C176.985306,638.926331 175.801788,638.881775 174.619629,638.870972 
	C174.730515,637.498535 174.336258,635.345947 175.040543,634.889893 
	C177.948685,633.006714 178.345688,630.842407 177.494781,627.659180 
	C176.507126,623.964294 176.144928,620.102295 175.590790,616.788391 
	C166.959671,614.279602 162.959732,621.038757 157.441528,624.774597 
	C158.246399,626.150146 159.049789,627.523193 159.837448,628.869324 
	C151.311157,635.353455 151.273697,635.652161 158.193771,638.862976 
	C156.880020,640.092163 155.443802,641.435974 153.634399,643.128967 
	C156.261292,644.060852 157.829559,644.562683 159.356018,645.169617 
	C163.063583,646.643921 166.572525,648.628845 169.858978,643.967407 
	C171.166245,642.113220 173.893005,642.475647 174.132355,645.356262 
	C174.490463,649.666199 174.225403,654.027954 174.225403,659.354065 
	C174.746918,659.583801 176.290039,660.601501 177.970657,660.943481 
	C184.051453,662.180725 188.373856,664.885010 189.253632,671.721375 
	C189.451431,673.258362 191.270447,675.170715 192.810608,675.849304 
	C199.319183,678.717224 205.948456,681.341980 212.652771,683.719727 
	C215.282364,684.652283 218.242340,684.615967 221.019394,685.180603 
	C223.733444,685.732361 226.906357,685.814026 228.959381,687.338684 
	C231.107941,688.934387 232.525406,689.613098 235.381607,689.345154 
	C239.359589,688.971802 243.474808,690.321838 247.553177,690.694885 
	C253.219574,691.213318 258.933319,692.063599 264.578705,691.787537 
	C276.795990,691.190125 288.978821,689.913330 301.183960,689.027832 
	C305.733490,688.697693 310.444916,689.330139 314.838043,688.386108 
	C323.072601,686.616577 331.474976,685.648987 339.340393,681.946167 
	C346.563049,678.546021 355.017883,677.922180 360.946899,671.556885 
	C363.337006,668.990967 365.435028,665.155823 370.294861,666.608459 
	C370.832062,666.769104 371.919373,664.772644 372.876740,663.916748 
	C374.409149,662.546692 375.886292,660.969543 377.684052,660.082031 
	C379.523651,659.173950 381.720886,658.990356 384.110016,658.404175 
	C382.549988,654.591492 384.070404,653.174377 387.477173,652.979370 
	C392.839478,652.672363 395.669434,648.527283 396.657623,644.419373 
	C397.842529,639.493652 395.917572,634.051941 397.816803,628.901367 
	C398.099121,628.135803 396.910278,626.387268 395.962311,625.700012 
	C393.968384,624.254578 391.767853,623.010132 389.497070,622.049927 
	C385.909546,620.532898 381.651733,620.047485 378.650848,617.816406 
	C373.049744,613.652222 366.493408,614.000671 360.406158,613.290344 
	C353.941956,612.536194 347.278931,613.665039 341.208954,610.263916 
	C339.603973,609.364502 337.059448,609.170654 336.319122,607.870911 
	C333.431488,602.801208 327.753448,599.289185 322.291595,600.101562 
	C321.512299,600.217346 320.380280,601.028687 320.263763,601.672363 
	C320.146973,602.317810 320.945679,603.618286 321.604309,603.833923 
	C325.389954,605.073364 324.291351,607.204590 322.405029,608.942444 
	C320.924866,610.306030 318.835968,611.000000 317.041229,612.032776 
	C313.837494,613.876221 308.913818,610.533264 306.680420,615.469604 
	C306.548889,615.760376 305.366425,615.874390 304.858154,615.650513 
	C298.438354,612.822632 292.052643,609.917480 285.780884,607.087402 
	C279.915710,613.889343 274.320923,615.708130 270.166016,612.407532 
	C267.516693,610.302917 268.309540,603.082520 272.348694,599.780640 
	C274.231293,599.955994 276.113922,600.131348 278.105896,600.989563 
	C279.321228,604.213684 281.546539,606.072327 284.859558,604.337402 
	C288.786224,602.281189 285.944336,599.745361 285.127106,596.903137 
	C288.793823,593.401489 290.337616,589.094360 289.981934,584.072937 
	C289.739746,580.654419 289.482727,577.236938 290.082550,573.978394 
	C291.056641,575.516724 291.928314,577.134033 293.035767,578.569458 
	C293.996918,579.815247 295.225159,580.854980 296.539795,582.669373 
	C297.661285,583.312439 298.782745,583.955505 299.999451,585.365723 
	C302.125092,587.497620 304.116455,589.791077 306.421814,591.706665 
	C308.059418,593.067383 310.022217,594.185791 312.020660,594.920776 
	C313.974121,595.639099 316.240234,595.487854 318.219971,596.158569 
	C321.465027,597.257874 321.702545,596.046875 321.662781,593.115723 
	C321.584564,587.353149 319.168243,582.469727 317.286316,577.021667 
	C321.762848,573.968750 326.239410,570.915771 331.389496,568.174377 
	C333.281403,569.164246 335.096436,570.368774 337.087402,571.082031 
	C338.978210,571.759460 342.173462,572.892578 342.835052,572.128418 
	C344.745392,569.921936 346.623169,566.893433 346.720276,564.124878 
	C346.826263,561.102966 345.720734,557.404602 341.734131,556.183838 
	C344.928864,551.126343 348.123596,546.068787 352.053345,541.025696 
	C353.436371,541.539124 354.868103,542.573181 356.191589,542.449341 
	C358.426239,542.240356 361.330170,541.977295 362.652649,540.540405 
	C367.111023,535.696472 363.678864,526.560425 357.110779,524.185120 
	C357.842834,517.083130 358.574921,509.981171 360.278656,502.958832 
	C362.456757,502.291016 365.903229,502.249329 366.595093,500.847778 
	C369.715393,494.527161 364.385071,486.572998 356.771820,485.412872 
	C356.192047,483.980408 355.612274,482.547913 354.952911,480.398102 
	C352.576111,477.953156 350.199280,475.508179 347.377258,472.434662 
	C345.814209,464.455719 344.251129,456.476776 342.497711,447.526154 
	C339.585449,449.863434 337.365692,451.644989 334.724915,452.750916 
	C333.365295,452.711700 331.991974,452.778900 330.649597,452.605927 
	C329.044647,452.399109 327.466156,451.986877 326.223389,451.108093 
	C328.190948,449.487335 330.158508,447.866577 332.513123,445.926971 
	C329.405151,443.185089 326.644043,440.749237 323.949371,437.415802 
	C324.044983,430.922424 322.682831,428.128448 317.633728,427.589081 
	C314.858276,427.292572 311.853943,429.138184 308.192383,430.028076 
	C304.117249,428.622223 300.042114,427.216370 295.645355,425.162598 
	C294.331299,422.460632 295.202545,418.456451 290.410797,417.932129 
	C283.630768,417.190277 278.578674,421.075928 272.116150,423.833252 
	C264.090118,425.268860 256.064087,426.704498 247.940613,427.379974 
	C245.810471,422.780701 241.563141,423.848602 238.039062,424.222748 
	C236.408447,424.395844 234.260834,426.458282 233.693237,428.122955 
	C233.028366,430.072845 233.828827,432.522400 233.334915,435.067871 
	C228.459290,438.709015 223.583664,442.350159 217.948486,445.972748 
	C213.552414,444.824951 205.189026,447.370331 203.177475,450.810364 
	C200.568527,455.272003 202.081863,459.340790 204.795273,463.720093 
	C201.934921,470.173462 199.074570,476.626801 195.368484,483.034851 
	C187.431229,483.523590 192.204117,490.930237 189.370163,494.478180 
	C187.817886,496.421600 189.223465,500.253998 193.216049,501.929382 
	C193.750854,509.285645 194.285675,516.641907 194.109894,524.009705 
	C188.529556,526.346252 187.168594,528.543274 187.602753,534.028198 
	C187.602753,534.028198 187.180038,534.065796 186.377640,534.167480 
	C186.182785,537.168396 185.028122,540.559265 186.047104,543.066956 
	C187.202560,545.910461 190.296188,548.070007 193.759125,544.035156 
	C196.170990,545.425110 198.582855,546.815063 200.998886,548.957153 
	C200.956238,553.278137 203.939835,554.468140 207.405411,554.954956 
	C210.012970,555.321289 212.013992,554.547058 213.030762,551.435608 
	C234.449371,553.467285 254.711655,549.105408 274.105499,540.214233 
	C300.984192,527.891479 321.323212,508.465363 336.353485,483.453217 
	C339.472229,485.304657 342.590942,487.156128 345.999115,489.824127 
	C349.506531,506.891663 347.555847,523.346741 339.214722,538.617554 
	C331.826050,552.144714 321.519653,562.943970 305.982452,568.083862 
	C302.261993,564.829956 298.723480,561.327454 294.750244,558.418884 
	C292.505188,556.775391 289.545349,556.108337 286.597260,554.236816 
	C285.997650,550.236389 285.398041,546.235962 284.755615,541.949951 
	C281.687408,543.369812 279.254181,545.005981 276.583435,545.636902 
	C268.234131,547.609375 264.078186,552.518860 263.810303,561.098999 
	C257.911255,562.432495 253.607712,565.779480 250.255096,571.166138 
	C244.012924,567.542236 237.770477,563.918762 231.528809,560.294006 
	C230.281311,559.569519 229.064224,558.274536 227.786041,558.212463 
	C222.766327,557.968750 217.727814,558.112732 212.696274,558.112732 
	C212.426697,558.524475 212.157104,558.936218 211.887512,559.347900 
	C213.987915,561.101318 216.088333,562.854736 217.824509,565.252625 
M369.186066,503.880829 
	C370.172638,508.766907 374.470062,512.976929 372.292633,518.591064 
	C372.271515,518.645508 374.379028,519.974060 375.422607,519.885132 
	C376.886902,519.760132 378.344482,518.962219 379.648132,518.188049 
	C379.843872,518.071899 379.429169,515.952637 378.887177,515.721741 
	C374.055542,513.663635 373.363831,509.489838 372.937195,505.021362 
	C372.744476,503.002777 371.998322,501.283234 369.186066,503.880829 
M161.831924,650.573792 
	C161.109192,650.073059 160.128662,648.979065 159.703751,649.163696 
	C155.688049,650.908752 153.276688,649.279053 151.208481,645.553711 
	C151.333023,648.163208 151.791107,651.673767 153.059174,651.995850 
	C155.711060,652.669556 158.790039,651.661987 161.831924,650.573792 
M377.312500,510.738190 
	C377.898346,511.573822 378.484192,512.409485 379.070007,513.245117 
	C379.628571,512.156311 380.187134,511.067505 380.745667,509.978699 
	C379.751648,510.062439 378.757599,510.146179 377.312500,510.738190 
M151.392426,658.201782 
	C151.786072,658.205994 152.179718,658.210205 152.573380,658.214417 
	C152.574905,658.051086 152.587372,657.745728 152.576385,657.744812 
	C152.184647,657.714661 151.790726,657.712952 151.392426,658.201782 
z"/>
<path fill="#FCFCFC" opacity="1.000000" stroke="none" 
	d="
M271.561920,599.695435 
	C268.309540,603.082520 267.516693,610.302917 270.166016,612.407532 
	C274.320923,615.708130 279.915710,613.889343 285.780884,607.087402 
	C292.052643,609.917480 298.438354,612.822632 304.858154,615.650513 
	C305.366425,615.874390 306.548889,615.760376 306.680420,615.469604 
	C308.913818,610.533264 313.837494,613.876221 317.041229,612.032776 
	C318.835968,611.000000 320.924866,610.306030 322.405029,608.942444 
	C324.291351,607.204590 325.389954,605.073364 321.604309,603.833923 
	C320.945679,603.618286 320.146973,602.317810 320.263763,601.672363 
	C320.380280,601.028687 321.512299,600.217346 322.291595,600.101562 
	C327.753448,599.289185 333.431488,602.801208 336.319122,607.870911 
	C337.059448,609.170654 339.603973,609.364502 341.208954,610.263916 
	C347.278931,613.665039 353.941956,612.536194 360.406158,613.290344 
	C366.493408,614.000671 373.049744,613.652222 378.650848,617.816406 
	C381.651733,620.047485 385.909546,620.532898 389.497070,622.049927 
	C391.767853,623.010132 393.968384,624.254578 395.962311,625.700012 
	C396.910278,626.387268 398.099121,628.135803 397.816803,628.901367 
	C395.917572,634.051941 397.842529,639.493652 396.657623,644.419373 
	C395.669434,648.527283 392.839478,652.672363 387.477173,652.979370 
	C384.070404,653.174377 382.549988,654.591492 384.110016,658.404175 
	C381.720886,658.990356 379.523651,659.173950 377.684052,660.082031 
	C375.886292,660.969543 374.409149,662.546692 372.876740,663.916748 
	C371.919373,664.772644 370.832062,666.769104 370.294861,666.608459 
	C365.435028,665.155823 363.337006,668.990967 360.946899,671.556885 
	C355.017883,677.922180 346.563049,678.546021 339.340393,681.946167 
	C331.474976,685.648987 323.072601,686.616577 314.838043,688.386108 
	C310.444916,689.330139 305.733490,688.697693 301.183960,689.027832 
	C288.978821,689.913330 276.795990,691.190125 264.578705,691.787537 
	C258.933319,692.063599 253.219574,691.213318 247.553177,690.694885 
	C243.474808,690.321838 239.359589,688.971802 235.381607,689.345154 
	C232.525406,689.613098 231.107941,688.934387 228.959381,687.338684 
	C226.906357,685.814026 223.733444,685.732361 221.019394,685.180603 
	C218.242340,684.615967 215.282364,684.652283 212.652771,683.719727 
	C205.948456,681.341980 199.319183,678.717224 192.810608,675.849304 
	C191.270447,675.170715 189.451431,673.258362 189.253632,671.721375 
	C188.373856,664.885010 184.051453,662.180725 177.970657,660.943481 
	C176.290039,660.601501 174.746918,659.583801 174.225403,659.354065 
	C174.225403,654.027954 174.490463,649.666199 174.132355,645.356262 
	C173.893005,642.475647 171.166245,642.113220 169.858978,643.967407 
	C166.572525,648.628845 163.063583,646.643921 159.356018,645.169617 
	C157.829559,644.562683 156.261292,644.060852 153.634399,643.128967 
	C155.443802,641.435974 156.880020,640.092163 158.193771,638.862976 
	C151.273697,635.652161 151.311157,635.353455 159.837448,628.869324 
	C159.049789,627.523193 158.246399,626.150146 157.441528,624.774597 
	C162.959732,621.038757 166.959671,614.279602 175.590790,616.788391 
	C176.144928,620.102295 176.507126,623.964294 177.494781,627.659180 
	C178.345688,630.842407 177.948685,633.006714 175.040543,634.889893 
	C174.336258,635.345947 174.730515,637.498535 174.619629,638.870972 
	C175.801788,638.881775 176.985306,638.926331 178.165161,638.879150 
	C178.455750,638.867615 178.809052,638.618225 179.007385,638.375183 
	C181.954269,634.765015 184.477478,630.468384 190.487549,632.405457 
	C190.750748,632.490295 193.533279,628.170166 193.009125,626.625916 
	C191.617279,622.525391 189.830185,618.023376 183.733658,618.853088 
	C182.668228,618.998108 181.351303,617.295288 180.150543,616.445923 
	C181.387573,615.632019 182.524567,614.407227 183.879471,614.077271 
	C188.947250,612.843506 193.651566,612.881042 198.563156,615.918152 
	C200.994736,617.421814 205.124451,616.179382 208.713440,616.179382 
	C207.320709,607.254456 215.197632,610.365295 217.394821,606.483765 
	C219.619537,604.317688 221.743332,602.034546 224.090942,600.011047 
	C228.346786,596.342773 233.041611,593.127380 236.943436,589.128052 
	C238.964630,587.056396 239.679779,583.710449 241.668274,580.862183 
	C246.592819,582.256409 250.834061,583.728638 255.500519,585.348450 
	C255.711395,580.797424 255.877808,577.206238 256.047607,573.542175 
	C254.240662,572.725220 252.616257,571.990784 250.991837,571.256348 
	C253.607712,565.779480 257.911255,562.432495 264.215942,561.588013 
	C263.915466,568.691650 263.171783,575.302612 262.513031,581.921997 
	C261.733276,589.757812 264.121002,596.023987 271.561920,599.695435 
M232.597580,632.974854 
	C227.609467,635.197754 222.791077,638.032349 217.586838,639.476196 
	C212.088211,641.001526 209.799347,644.684631 208.391602,649.430786 
	C206.930496,654.356934 206.418808,659.442322 210.879639,663.133606 
	C213.383087,665.205200 216.451263,666.859985 219.534637,667.913574 
	C227.640427,670.683350 235.822144,673.300354 244.114578,675.429260 
	C249.359543,676.775818 254.863846,677.835144 260.240387,677.785461 
	C269.482269,677.699951 278.737823,675.894592 287.946838,676.170715 
	C303.189911,676.627808 317.648071,673.882507 331.513000,667.888367 
	C334.907532,666.420715 338.277771,664.192322 340.773163,661.494263 
	C346.162750,655.666870 345.076691,645.586426 339.187134,641.608032 
	C324.596039,631.751648 308.087524,628.454224 290.924377,628.141968 
	C278.884521,627.922852 266.801270,628.308472 254.786850,629.139343 
	C247.598755,629.636414 240.506012,631.512634 232.597580,632.974854 
z"/>
<path fill="#FCFCFC" opacity="1.000000" stroke="none" 
	d="
M325.876221,451.663635 
	C327.466156,451.986877 329.044647,452.399109 330.649597,452.605927 
	C331.991974,452.778900 333.365295,452.711700 334.752136,453.349426 
	C328.873016,458.359131 322.966736,462.770325 316.437225,467.646973 
	C320.860657,468.257812 324.282043,468.730286 328.181152,469.268707 
	C327.449493,471.055817 326.937164,472.601959 326.210114,474.039520 
	C311.382355,503.359406 288.315155,523.893372 258.374146,536.761292 
	C243.893585,542.984619 228.692230,546.848999 212.746262,545.822937 
	C203.041016,545.198486 193.406601,543.725220 187.998596,533.875244 
	C187.168594,528.543274 188.529556,526.346252 194.593536,524.369751 
	C198.550415,537.127747 201.785522,539.892517 212.948990,539.657410 
	C212.095673,537.743225 211.298859,535.966614 210.510773,534.186279 
	C195.339645,499.912170 210.827835,457.876648 244.814362,442.422821 
	C271.661469,430.215393 297.205475,432.927063 320.967804,450.792053 
	C322.152649,451.682861 324.219849,451.399963 325.876221,451.663635 
M286.867310,512.365601 
	C295.143799,506.892792 300.420227,499.588379 300.464569,489.321869 
	C300.526855,474.900208 298.152039,460.840973 293.637299,447.153076 
	C293.293060,446.109406 292.350159,445.263214 291.685516,444.325226 
	C290.618835,446.462280 290.444672,448.244354 290.465363,450.024170 
	C290.577820,459.683807 290.766510,469.342651 290.855072,479.002411 
	C290.870056,480.639679 290.857147,482.424408 290.229340,483.868011 
	C289.820038,484.809235 288.304718,485.699554 287.230225,485.769165 
	C286.522369,485.815033 285.394196,484.484009 285.036865,483.547272 
	C284.580292,482.350464 284.659058,480.932159 284.596222,479.605103 
	C284.100220,469.126862 283.672272,458.645050 283.092377,448.171570 
	C283.007904,446.646362 282.228638,445.159607 281.770874,443.655090 
	C281.263214,443.718201 280.755524,443.781311 280.247864,443.844421 
	C279.914520,446.203918 279.344910,448.557892 279.289368,450.923920 
	C279.066498,460.415405 279.035736,469.911255 278.849091,479.403839 
	C278.817047,481.034882 278.569214,482.726868 278.032898,484.254395 
	C277.776459,484.984772 276.606812,485.836945 275.859375,485.828949 
	C275.101379,485.820892 273.963623,484.965851 273.686890,484.222961 
	C273.181396,482.865997 273.055542,481.322937 273.002838,479.849182 
	C272.633698,469.529449 272.378693,459.205322 271.945251,448.888550 
	C271.865692,446.993805 271.138977,445.126190 270.710968,443.246063 
	C270.038818,443.310974 269.366699,443.375916 268.694550,443.440857 
	C268.407928,447.791565 268.031219,452.138641 267.853821,456.493805 
	C267.508179,464.980042 267.416260,473.480255 266.855896,481.950684 
	C266.760925,483.385895 264.850128,484.700958 263.778229,486.071533 
	C262.789734,484.764099 261.517303,483.575623 260.903809,482.111115 
	C260.425690,480.969696 260.742065,479.484833 260.748596,478.152802 
	C260.796021,468.491455 260.872589,458.830261 260.891357,449.168915 
	C260.894501,447.550262 260.662048,445.931152 260.538452,444.312225 
	C258.857880,445.066803 258.157501,445.821564 257.889069,446.707245 
	C253.422684,461.443176 250.629105,476.475739 251.313263,491.913696 
	C251.615662,498.737610 253.938873,505.295105 260.181396,508.990601 
	C266.026001,512.450562 270.770660,516.034241 268.650238,524.192139 
	C269.072937,524.322693 269.495636,524.453247 269.918335,524.583801 
	C275.380341,520.658997 280.842316,516.734131 286.867310,512.365601 
z"/>
<path fill="#2991D2" opacity="1.000000" stroke="none" 
	d="
M326.049805,451.385864 
	C324.219849,451.399963 322.152649,451.682861 320.967804,450.792053 
	C297.205475,432.927063 271.661469,430.215393 244.814362,442.422821 
	C210.827835,457.876648 195.339645,499.912170 210.510773,534.186279 
	C211.298859,535.966614 212.095673,537.743225 212.948990,539.657410 
	C201.785522,539.892517 198.550415,537.127747 194.948853,524.364014 
	C194.285675,516.641907 193.750854,509.285645 193.305618,501.096863 
	C194.334869,494.536316 195.274551,488.808228 196.214218,483.080170 
	C199.074570,476.626801 201.934921,470.173462 205.186249,463.194885 
	C209.954163,457.110229 214.331100,451.550781 218.708038,445.991272 
	C223.583664,442.350159 228.459290,438.709015 233.997986,434.833435 
	C239.120041,432.446045 243.579041,430.293091 248.038025,428.140137 
	C256.064087,426.704498 264.090118,425.268860 273.017395,423.812378 
	C281.268097,424.464478 288.617554,425.137482 295.966980,425.810516 
	C300.042114,427.216370 304.117249,428.622223 308.821259,430.267883 
	C314.261047,433.109589 319.071991,435.711487 323.882904,438.313354 
	C326.644043,440.749237 329.405151,443.185089 332.513123,445.926971 
	C330.158508,447.866577 328.190948,449.487335 326.049805,451.385864 
z"/>
<path fill="#2991D2" opacity="1.000000" stroke="none" 
	d="
M416.024017,540.164795 
	C411.955414,538.505554 407.886810,536.846252 403.409119,534.725098 
	C400.341675,530.488037 397.683319,526.712891 395.024933,522.937683 
	C394.403595,519.247742 393.782257,515.557800 393.172516,511.041046 
	C394.705475,505.474365 396.226898,500.734497 397.748352,495.994629 
	C401.598206,492.687164 405.448029,489.379700 410.031097,485.931458 
	C414.852081,484.900909 418.939819,484.011108 423.027588,483.121277 
	C427.725830,484.147369 432.424042,485.173492 437.731506,486.519287 
	C440.962128,488.685577 443.583496,490.532135 446.204834,492.378723 
	C448.571533,497.416718 450.938232,502.454712 453.465332,508.245728 
	C452.402222,514.986206 451.178741,520.973633 449.955261,526.961121 
	C449.955231,526.961121 449.995728,527.002441 449.756226,527.079590 
	C449.234039,527.382751 449.113403,527.675537 449.154846,528.035095 
	C449.154846,528.035095 449.031952,528.068726 448.806854,528.333252 
	C443.667603,532.740479 438.753448,536.883240 433.826416,541.036865 
	C437.494781,543.715088 442.005829,544.004944 446.760437,541.120667 
	C448.105652,540.304626 449.575439,539.693909 450.988129,538.989075 
	C451.118958,539.286438 451.240326,539.588318 451.382141,539.880371 
	C452.466217,542.112976 454.944336,545.822754 454.407928,546.326904 
	C451.620911,548.946289 448.285461,551.326721 444.719696,552.681335 
	C440.702789,554.207336 436.252228,554.354492 431.594269,551.589966 
	C426.375763,547.778137 421.792419,544.274414 417.209076,540.770630 
	C417.209076,540.770630 417.061737,540.858154 417.033081,540.609741 
	C416.677612,540.295837 416.350800,540.230286 416.024017,540.164795 
M431.792328,527.550781 
	C440.209900,521.875793 442.953613,512.289856 438.616760,503.707794 
	C434.797943,496.150879 425.408539,492.666656 417.272827,495.787506 
	C408.527130,499.142303 404.341644,509.267944 407.853210,518.575623 
	C411.531006,528.323975 420.334320,531.851685 431.792328,527.550781 
z"/>
<path fill="#F99734" opacity="1.000000" stroke="none" 
	d="
M187.800674,533.951721 
	C193.406601,543.725220 203.041016,545.198486 212.746262,545.822937 
	C228.692230,546.848999 243.893585,542.984619 258.374146,536.761292 
	C288.315155,523.893372 311.382355,503.359406 326.210114,474.039520 
	C326.937164,472.601959 327.449493,471.055817 328.181152,469.268707 
	C324.282043,468.730286 320.860657,468.257812 316.437225,467.646973 
	C322.966736,462.770325 328.873016,458.359131 334.962616,453.687225 
	C337.365692,451.644989 339.585449,449.863434 342.497711,447.526154 
	C344.251129,456.476776 345.814209,464.455719 347.594788,473.161682 
	C347.812286,475.227692 347.812286,476.566711 347.812286,478.440369 
	C344.849152,476.738190 342.481537,475.378082 339.830597,473.855225 
	C338.418549,477.134766 337.179321,480.012939 335.940063,482.891083 
	C321.323212,508.465363 300.984192,527.891479 274.105499,540.214233 
	C254.711655,549.105408 234.449371,553.467285 212.250214,551.285339 
	C207.978012,550.158386 204.486374,549.181702 200.994720,548.205017 
	C198.582855,546.815063 196.170990,545.425110 193.263229,543.618774 
	C190.904907,540.156860 189.042480,537.111328 187.180038,534.065796 
	C187.180038,534.065796 187.602753,534.028198 187.800674,533.951721 
z"/>
<path fill="#454748" opacity="1.000000" stroke="none" 
	d="
M645.003662,539.956970 
	C643.276611,539.818726 641.549500,539.680420 639.334290,539.503052 
	C639.334290,537.905823 639.334290,536.359192 639.334351,533.948364 
	C639.233521,520.722900 639.132751,508.361603 639.031921,496.000275 
	C639.103577,494.279480 639.175232,492.558655 639.240723,490.001526 
	C639.234558,487.598999 639.234558,486.032867 639.234558,484.301971 
	C641.855957,484.147797 643.928528,484.025940 646.001038,483.904053 
	C647.393555,483.973328 648.786133,484.042603 651.049500,484.114868 
	C658.908203,484.514709 665.895996,484.911560 672.883850,485.308380 
	C675.987976,487.147400 679.092102,488.986389 682.660767,491.268066 
	C688.770081,499.082977 688.180054,506.898376 684.774780,514.913879 
	C682.269226,517.003235 679.763672,519.092651 676.709045,521.570435 
	C671.443787,522.880676 666.727722,523.802551 662.011597,524.724365 
	C659.099304,524.539001 656.187012,524.353577 652.397034,524.112366 
	C652.397034,528.051758 652.397034,531.563660 652.384399,535.925537 
	C651.514587,537.763184 650.833618,539.215393 649.756897,539.623718 
	C648.334900,540.163025 646.602600,539.884155 645.003662,539.956970 
M652.310669,500.645630 
	C652.310669,504.757263 652.310669,508.868866 652.310669,513.284912 
	C657.290283,513.284912 661.596924,513.530945 665.863342,513.221313 
	C670.963928,512.851196 673.899841,509.652832 674.111572,504.924500 
	C674.344299,499.727478 671.374817,495.737610 666.149780,495.215607 
	C661.744751,494.775543 657.260803,495.125031 652.512817,495.125031 
	C652.438293,496.782898 652.372986,498.237335 652.310669,500.645630 
z"/>
<path fill="#2991D2" opacity="1.000000" stroke="none" 
	d="
M597.000610,540.050293 
	C594.240173,539.964783 591.434021,540.137573 588.742676,539.661621 
	C587.721252,539.480957 586.963989,537.806763 586.076660,535.942261 
	C585.992126,519.380859 585.917297,503.690460 585.842407,488.000061 
	C585.985046,485.854095 586.127686,483.708160 586.299500,481.122650 
	C590.362000,481.122650 594.379333,481.122650 599.013123,481.122650 
	C599.013123,483.835724 599.013123,486.456848 599.006165,489.993835 
	C598.999207,497.954742 598.999207,504.999756 598.999207,513.124451 
	C604.991272,507.407715 610.123474,502.511322 615.255615,497.614929 
	C615.405090,497.529388 615.554626,497.443878 616.105652,497.110504 
	C616.655884,496.781647 616.804504,496.700653 616.953064,496.619690 
	C617.747253,496.645660 618.541504,496.671631 620.090454,496.724762 
	C621.854431,496.663940 622.863586,496.575989 623.872803,496.488037 
	C625.719116,496.502869 627.565369,496.517731 630.010254,496.541443 
	C630.608765,496.550293 631.067444,496.606354 631.067444,496.606354 
	C631.067444,496.606354 631.010864,496.817444 631.003601,497.121704 
	C630.954773,497.603333 630.913269,497.780701 630.561768,498.076538 
	C625.206909,503.383209 620.162048,508.571381 614.876282,514.007324 
	C620.881897,522.330933 626.897095,530.667847 632.912231,539.004700 
	C632.912292,539.004700 632.840210,539.378296 632.414917,539.591187 
	C627.064514,539.657227 622.139404,539.510376 617.214355,539.363525 
	C616.188110,537.763489 615.161865,536.163391 613.867310,533.967529 
	C610.950317,529.675659 608.301514,525.979492 605.774963,522.453918 
	C600.072571,525.607483 598.044556,530.138672 598.804932,536.203918 
	C598.953796,537.391968 597.639893,538.763428 597.000610,540.050293 
z"/>
<path fill="#2991D2" opacity="1.000000" stroke="none" 
	d="
M299.904236,584.598572 
	C298.782745,583.955505 297.661285,583.312439 296.518707,581.888550 
	C294.910583,575.065308 297.051239,571.528503 303.362823,570.516846 
	C304.535461,570.328857 305.563477,569.238525 306.658264,568.564575 
	C321.519653,562.943970 331.826050,552.144714 339.214722,538.617554 
	C347.555847,523.346741 349.506531,506.891663 345.849060,489.056396 
	C345.549042,487.261566 345.399078,486.234436 345.089355,484.112823 
	C350.609406,488.015808 352.724152,484.341248 355.032501,481.115417 
	C355.612274,482.547913 356.192047,483.980408 356.944885,486.105896 
	C357.847626,492.158997 358.577301,497.519073 359.307007,502.879181 
	C358.574921,509.981171 357.842834,517.083130 356.992310,524.943848 
	C355.022003,530.805481 353.170197,535.908386 351.318359,541.011230 
	C348.123596,546.068787 344.928864,551.126343 341.338654,556.699097 
	C337.534088,560.763855 334.125031,564.313354 330.715942,567.862854 
	C326.239410,570.915771 321.762848,573.968750 316.717712,577.391113 
	C310.734131,580.039917 305.319183,582.319275 299.904236,584.598572 
z"/>
<path fill="#2991D2" opacity="1.000000" stroke="none" 
	d="
M271.955322,599.738037 
	C264.121002,596.023987 261.733276,589.757812 262.513031,581.921997 
	C263.171783,575.302612 263.915466,568.691650 264.623596,561.633789 
	C264.078186,552.518860 268.234131,547.609375 276.583435,545.636902 
	C279.254181,545.005981 281.687408,543.369812 284.755615,541.949951 
	C285.398041,546.235962 285.997650,550.236389 286.709900,555.052734 
	C287.625763,561.852112 288.429047,567.835571 289.232330,573.819031 
	C289.482727,577.236938 289.739746,580.654419 289.981934,584.072937 
	C290.337616,589.094360 288.793823,593.401489 284.613464,597.327393 
	C282.065369,598.603271 280.030945,599.455017 277.996521,600.306763 
	C276.113922,600.131348 274.231293,599.955994 271.955322,599.738037 
z"/>
<path fill="#454748" opacity="1.000000" stroke="none" 
	d="
M835.841370,529.383423 
	C836.712280,530.467041 837.583252,531.550659 838.549744,532.753296 
	C837.336426,534.031311 836.254944,535.170410 834.629761,536.674561 
	C829.384949,538.203735 824.683838,539.367981 819.982727,540.532166 
	C815.137390,539.592102 809.845642,540.041626 805.467041,535.653442 
	C792.952637,524.086243 793.787598,509.469055 807.016968,499.059326 
	C812.048340,498.057983 817.079712,497.056610 822.902039,496.131073 
	C827.064758,497.502106 830.436584,498.797302 833.808350,500.092468 
	C834.902527,501.232330 835.996643,502.372192 837.469666,504.006653 
	C839.019287,507.048737 840.190063,509.596222 841.360840,512.143677 
	C841.568115,515.199585 841.775330,518.255554 842.032532,522.048218 
	C831.926575,522.048218 822.431580,522.048218 812.163452,522.047241 
	C811.207214,522.715149 811.024109,523.383972 810.841064,524.052795 
	C812.789734,529.502502 817.379639,529.992065 822.949463,530.053223 
	C825.852356,529.112549 827.983887,528.208191 830.115479,527.303833 
	C830.850098,527.035400 831.584778,526.766968 832.849060,526.890625 
	C834.199585,527.982971 835.020508,528.683228 835.841370,529.383423 
M817.878967,505.931366 
	C813.051636,506.861511 810.263794,509.639130 809.226440,514.924072 
	C815.915649,514.924072 821.870178,514.932922 827.824524,514.910950 
	C828.439270,514.908691 829.053406,514.722961 829.664246,514.622986 
	C828.733826,508.132996 826.207153,506.156403 817.878967,505.931366 
z"/>
<path fill="#454748" opacity="1.000000" stroke="none" 
	d="
M756.427612,539.034058 
	C751.820068,538.750977 747.213684,538.445251 742.603943,538.204407 
	C741.704529,538.157410 740.778992,538.294617 739.887634,538.463501 
	C736.876953,539.034119 733.876160,539.657166 730.044434,540.244324 
	C717.585266,538.678162 714.154846,533.584167 716.385254,521.173584 
	C718.688477,519.481323 720.991699,517.789124 724.064148,516.003662 
	C730.995239,515.360596 737.157166,514.810730 744.418457,514.162720 
	C742.848022,511.608765 742.147705,509.079468 740.505859,508.045898 
	C734.152771,504.046539 727.926025,507.190186 721.935547,509.488708 
	C720.843872,507.396179 719.940308,505.664276 719.036743,503.932373 
	C718.827881,502.688477 718.619019,501.444550 719.038818,500.075439 
	C721.492798,499.180603 723.318115,498.410980 725.143433,497.641327 
	C729.948303,496.854950 735.078735,494.630615 739.479858,495.627167 
	C745.717529,497.039520 752.571838,499.240906 755.373108,507.368103 
	C755.879761,518.416260 756.153687,528.725159 756.427612,539.034058 
M737.431091,522.050537 
	C735.459595,522.146729 733.269531,521.744751 731.580994,522.485718 
	C730.034363,523.164368 728.189270,524.983826 728.023254,526.473022 
	C727.858765,527.949463 729.494568,530.890381 730.571655,531.004211 
	C733.795410,531.345032 737.513977,531.398621 740.295288,530.040466 
	C742.265137,529.078613 743.027039,525.643311 744.782227,522.498657 
	C741.538635,522.278320 739.926636,522.168823 737.431091,522.050537 
z"/>
<path fill="#2991D2" opacity="1.000000" stroke="none" 
	d="
M463.034729,530.925903 
	C462.646179,528.239258 462.257599,525.552551 461.867493,521.985474 
	C461.802948,516.394958 461.739990,511.684814 461.677002,506.974701 
	C462.162292,503.590179 462.647583,500.205627 463.966400,496.790649 
	C466.211304,496.686371 467.622650,496.612488 469.034027,496.538635 
	C470.501373,496.681305 471.968719,496.823944 473.909973,497.012695 
	C474.083740,498.303802 474.271851,499.701599 474.443451,501.935669 
	C474.527832,504.527405 474.628693,506.282898 474.729553,508.038361 
	C474.754730,512.756287 474.779907,517.474243 474.901611,522.963379 
	C476.221893,528.342651 479.601776,529.497620 483.832550,529.169067 
	C488.144623,528.834167 491.278412,526.575623 491.945068,522.340454 
	C492.582855,518.288635 492.265900,514.086548 492.368591,509.950470 
	C492.458038,506.275055 492.547485,502.599670 492.761719,498.174377 
	C493.598633,497.173279 494.310791,496.922028 495.022949,496.670776 
	C498.258392,496.670776 501.493835,496.670776 505.356140,496.670776 
	C505.356140,500.589203 505.356140,503.821289 505.343140,507.954834 
	C505.327240,517.890137 505.245087,526.925110 505.371796,535.957092 
	C505.407745,538.517639 504.860504,540.093079 502.003174,540.009155 
	C499.713470,539.940674 497.386108,540.096985 495.147644,539.722290 
	C493.723236,539.483704 492.430756,538.457153 491.281403,537.884705 
	C486.652191,538.645630 481.776520,539.447021 476.088684,540.173157 
	C469.567932,539.213440 465.673462,535.907654 463.034729,530.925903 
z"/>
<path fill="#2991D2" opacity="1.000000" stroke="none" 
	d="
M546.994751,537.198181 
	C544.740479,535.330627 542.486267,533.463013 540.062744,530.933960 
	C534.769836,521.301331 535.835693,512.571106 540.916626,503.997314 
	C543.455200,502.171295 545.993713,500.345276 549.146179,498.229065 
	C552.508606,497.205750 555.257080,496.472595 558.005554,495.739441 
	C560.546692,495.903351 563.087769,496.067230 566.233887,496.403076 
	C567.211609,496.638550 567.584290,496.702026 567.957031,496.765503 
	C568.379578,496.914551 568.802124,497.063629 569.794800,497.474670 
	C573.709595,500.386322 577.054199,503.036011 581.102051,506.242859 
	C576.565369,508.619202 573.524658,510.211945 570.305298,511.898254 
	C569.739563,511.268829 569.232117,510.637451 568.657104,510.075226 
	C564.427856,505.940002 556.853760,505.664520 552.839661,509.485199 
	C548.872742,513.260986 548.479675,521.693481 552.069580,526.005005 
	C555.786194,530.468750 562.867554,530.884949 567.761658,526.927429 
	C571.058899,524.260986 577.837646,526.459656 579.780029,530.825562 
	C579.780029,530.825562 579.843628,530.895996 579.620117,530.960083 
	C579.272522,531.346924 579.148376,531.669678 579.024292,531.992493 
	C579.024292,531.992493 578.987793,531.997253 578.789062,532.102051 
	C578.321106,532.385742 578.189819,532.636780 578.196594,532.960022 
	C576.904358,534.106750 575.612061,535.253418 573.806274,536.762695 
	C570.861694,538.131897 568.430786,539.138489 565.999817,540.145081 
	C563.297913,540.225098 560.596069,540.305176 557.079102,540.303467 
	C553.174255,539.213928 550.084534,538.206055 546.994751,537.198181 
z"/>
<path fill="#F3F3F3" opacity="1.000000" stroke="none" 
	d="
M540.566895,503.960571 
	C535.835693,512.571106 534.769836,521.301331 539.893188,530.641846 
	C536.758606,531.166443 534.105957,531.957947 532.727905,535.271912 
	C532.388855,536.087280 530.924500,536.434692 529.530701,536.546387 
	C529.083923,523.183411 529.083923,510.271301 529.083923,497.254456 
	C524.557861,497.254456 520.684326,497.254456 516.415222,497.254456 
	C516.415222,509.683868 516.399475,521.784607 516.432312,533.885132 
	C516.437195,535.684570 516.670959,537.483337 516.847656,539.969604 
	C520.767517,539.969604 524.381226,539.969604 527.994934,539.969604 
	C527.462463,541.059814 527.157837,542.873291 526.360962,543.124329 
	C520.644104,544.925171 514.910645,547.060181 509.019257,547.814270 
	C502.797974,548.610718 502.124542,547.390198 502.004578,540.429993 
	C504.860504,540.093079 505.407745,538.517639 505.371796,535.957092 
	C505.245087,526.925110 505.327240,517.890137 505.463013,508.399597 
	C509.671783,508.582672 511.198181,506.907074 511.108276,502.751678 
	C511.035248,499.374481 511.559570,495.899963 512.418396,492.625824 
	C512.797729,491.180054 514.660645,490.123474 516.553894,488.960358 
	C520.508972,489.400421 523.760071,489.770325 527.011230,490.140228 
	C527.203552,491.086090 527.065369,492.393494 527.641174,492.919830 
	C531.751526,496.677155 536.007507,500.275146 540.566895,503.960571 
z"/>
<path fill="#454748" opacity="1.000000" stroke="none" 
	d="
M767.950378,509.996063 
	C767.992859,509.541016 768.035278,509.085999 767.953247,508.089172 
	C767.595886,507.230164 767.335571,507.205841 767.047852,507.474457 
	C765.272461,507.315857 763.497070,507.157227 761.311890,506.962036 
	C761.311890,504.774261 761.311890,502.814545 761.337036,500.041901 
	C763.500854,498.560333 765.639465,497.891724 768.225525,497.083221 
	C768.225525,493.848999 768.225525,490.464996 768.225525,486.469025 
	C772.741577,486.831421 776.780701,487.155548 780.819824,487.479675 
	C780.776611,490.375122 780.733337,493.270569 780.845825,496.855957 
	C781.326477,497.621674 781.651245,497.697449 781.976074,497.773224 
	C784.725281,497.818359 787.474487,497.863464 790.765259,498.321320 
	C791.306763,501.494171 791.306763,504.254303 791.306763,507.413849 
	C787.700317,507.413849 784.439575,507.413849 780.922729,507.413849 
	C780.922729,513.764343 780.781738,519.717163 780.975830,525.659180 
	C781.091675,529.204590 783.474609,530.521606 786.802917,530.118958 
	C788.185486,529.951660 789.528320,529.456482 790.942261,529.096985 
	C792.034973,532.194214 793.010864,534.960388 794.083435,538.000488 
	C786.881042,541.283569 780.062683,541.136475 773.235413,537.885315 
	C772.424500,536.871216 771.613586,535.857117 770.464600,534.255737 
	C769.553528,531.593384 768.608643,529.541321 768.478760,527.438904 
	C768.120422,521.635864 768.102722,515.811829 767.950378,509.996063 
z"/>
<path fill="#FCFCFC" opacity="1.000000" stroke="none" 
	d="
M580.131897,530.914429 
	C577.837646,526.459656 571.058899,524.260986 567.761658,526.927429 
	C562.867554,530.884949 555.786194,530.468750 552.069580,526.005005 
	C548.479675,521.693481 548.872742,513.260986 552.839661,509.485199 
	C556.853760,505.664520 564.427856,505.940002 568.657104,510.075226 
	C569.232117,510.637451 569.739563,511.268829 570.305298,511.898254 
	C573.524658,510.211945 576.565369,508.619202 581.102051,506.242859 
	C577.054199,503.036011 573.709595,500.386322 570.131226,497.502502 
	C571.459534,495.943878 573.029114,493.495026 574.582336,493.505432 
	C579.265808,493.536835 582.391052,491.369568 585.499817,488.047180 
	C585.917297,503.690460 585.992126,519.380859 585.993896,535.534912 
	C584.108521,534.333435 582.296143,532.668335 580.131897,530.914429 
z"/>
<path fill="#FCFCFC" opacity="1.000000" stroke="none" 
	d="
M772.920654,538.111572 
	C780.062683,541.136475 786.881042,541.283569 794.083435,538.000488 
	C793.010864,534.960388 792.034973,532.194214 790.942261,529.096985 
	C789.528320,529.456482 788.185486,529.951660 786.802917,530.118958 
	C783.474609,530.521606 781.091675,529.204590 780.975830,525.659180 
	C780.781738,519.717163 780.922729,513.764343 780.922729,507.413849 
	C784.439575,507.413849 787.700317,507.413849 791.306763,507.413849 
	C791.306763,504.254303 791.306763,501.494171 791.225830,498.335724 
	C796.399963,497.769257 801.751587,493.603607 806.952820,498.688538 
	C793.787598,509.469055 792.952637,524.086243 805.125122,535.565674 
	C797.053223,546.890015 784.457153,546.699036 772.813843,548.866516 
	C769.877625,545.131042 770.981140,541.735291 772.920654,538.111572 
z"/>
<path fill="#454748" opacity="1.000000" stroke="none" 
	d="
M704.999207,480.072754 
	C705.835754,480.548004 706.672241,481.023224 707.555298,482.198547 
	C707.691650,486.598846 707.781616,490.299133 707.871582,493.999390 
	C707.812561,500.695465 707.753601,507.391510 707.697815,514.997620 
	C707.771912,520.271118 707.842773,524.634521 707.913635,528.997986 
	C707.825500,529.654175 707.673279,530.308899 707.658813,530.966675 
	C707.436279,541.107849 709.669800,539.537476 698.025574,539.759644 
	C694.961548,539.818115 693.834778,538.711853 694.108398,535.663025 
	C694.548828,530.756287 694.764648,525.829285 695.070740,519.994629 
	C694.990601,509.718109 694.915039,500.357819 694.839478,490.997559 
	C695.312561,487.470978 695.785767,483.944427 697.064148,480.380371 
	C700.245972,480.252808 702.622620,480.162781 704.999207,480.072754 
z"/>
<path fill="#FCFCFC" opacity="1.000000" stroke="none" 
	d="
M633.262207,538.958008 
	C626.897095,530.667847 620.881897,522.330933 614.876282,514.007324 
	C620.162048,508.571381 625.206909,503.383209 630.811401,497.995728 
	C631.594116,497.533447 631.817261,497.270477 632.040405,497.007507 
	C634.111267,496.700958 636.182190,496.394409 638.642456,496.044067 
	C639.132751,508.361603 639.233521,520.722900 639.218750,533.540894 
	C637.272827,535.635498 635.442505,537.273376 633.262207,538.958008 
z"/>
<path fill="#2991D2" opacity="1.000000" stroke="none" 
	d="
M528.274414,539.781372 
	C524.381226,539.969604 520.767517,539.969604 516.847656,539.969604 
	C516.670959,537.483337 516.437195,535.684570 516.432312,533.885132 
	C516.399475,521.784607 516.415222,509.683868 516.415222,497.254456 
	C520.684326,497.254456 524.557861,497.254456 529.083923,497.254456 
	C529.083923,510.271301 529.083923,523.183411 529.172241,536.558594 
	C529.024963,537.878845 528.789490,538.736023 528.274414,539.781372 
z"/>
<path fill="#2991D2" opacity="1.000000" stroke="none" 
	d="
M250.623474,571.211243 
	C252.616257,571.990784 254.240662,572.725220 256.047607,573.542175 
	C255.877808,577.206238 255.711395,580.797424 255.500519,585.348450 
	C250.834061,583.728638 246.592819,582.256409 242.024445,580.702759 
	C237.783447,578.506226 233.869583,576.391296 229.515442,573.753540 
	C225.446350,570.356506 221.817551,567.482361 218.188751,564.608154 
	C216.088333,562.854736 213.987915,561.101318 211.887512,559.347900 
	C212.157104,558.936218 212.426697,558.524475 212.696274,558.112732 
	C217.727814,558.112732 222.766327,557.968750 227.786041,558.212463 
	C229.064224,558.274536 230.281311,559.569519 231.528809,560.294006 
	C237.770477,563.918762 244.012924,567.542236 250.623474,571.211243 
z"/>
<path fill="#F3F3F3" opacity="1.000000" stroke="none" 
	d="
M767.533691,509.999969 
	C768.102722,515.811829 768.120422,521.635864 768.478760,527.438904 
	C768.608643,529.541321 769.553528,531.593384 770.206543,534.024780 
	C767.803101,541.167908 762.064392,538.803894 756.835693,539.027405 
	C756.153687,528.725159 755.879761,518.416260 755.539795,507.653259 
	C759.354797,508.134003 763.235840,509.068939 767.533691,509.999969 
z"/>
<path fill="#FCFCFC" opacity="1.000000" stroke="none" 
	d="
M708.287170,529.037720 
	C707.842773,524.634521 707.771912,520.271118 707.813232,515.454346 
	C712.318054,514.541565 713.578064,518.293701 716.067383,520.997070 
	C714.154846,533.584167 717.585266,538.678162 729.615112,540.339233 
	C730.161682,544.198975 728.714722,547.121338 724.888428,547.783997 
	C721.246033,548.414856 717.427368,548.081909 715.554138,544.118164 
	C714.110291,541.063110 713.296997,537.715027 711.945801,534.609253 
	C711.096924,532.658264 709.772034,530.914368 708.287170,529.037720 
z"/>
<path fill="#FCFCFC" opacity="1.000000" stroke="none" 
	d="
M299.951843,584.982178 
	C305.319183,582.319275 310.734131,580.039917 316.490631,577.625854 
	C319.168243,582.469727 321.584564,587.353149 321.662781,593.115723 
	C321.702545,596.046875 321.465027,597.257874 318.219971,596.158569 
	C316.240234,595.487854 313.974121,595.639099 312.020660,594.920776 
	C310.022217,594.185791 308.059418,593.067383 306.421814,591.706665 
	C304.116455,589.791077 302.125092,587.497620 299.951843,584.982178 
z"/>
<path fill="#FCFCFC" opacity="1.000000" stroke="none" 
	d="
M694.432373,490.996460 
	C694.915039,500.357819 694.990601,509.718109 694.977783,519.539917 
	C692.867310,518.895874 690.848450,517.784119 688.821594,516.687256 
	C687.737854,516.100891 686.640015,515.540344 685.161682,514.941040 
	C688.180054,506.898376 688.770081,499.082977 682.972107,491.390930 
	C686.554321,491.045837 690.289734,491.020569 694.432373,490.996460 
z"/>
<path fill="#FCFCFC" opacity="1.000000" stroke="none" 
	d="
M289.657440,573.898682 
	C288.429047,567.835571 287.625763,561.852112 286.864990,555.435059 
	C289.545349,556.108337 292.505188,556.775391 294.750244,558.418884 
	C298.723480,561.327454 302.261993,564.829956 306.320374,568.324219 
	C305.563477,569.238525 304.535461,570.328857 303.362823,570.516846 
	C297.051239,571.528503 294.910583,575.065308 296.416504,581.546692 
	C295.225159,580.854980 293.996918,579.815247 293.035767,578.569458 
	C291.928314,577.134033 291.056641,575.516724 289.657440,573.898682 
z"/>
<path fill="#FCFCFC" opacity="1.000000" stroke="none" 
	d="
M662.012207,525.129639 
	C666.727722,523.802551 671.443787,522.880676 676.530029,521.849365 
	C677.776489,524.120789 678.004089,526.965332 681.893555,526.565186 
	C682.556458,526.497070 683.856262,529.025391 684.200195,530.507812 
	C684.515747,531.867737 683.937744,533.435059 683.754700,534.900879 
	C675.043030,539.014160 663.963135,534.233276 662.012207,525.129639 
z"/>
<path fill="#F3F3F3" opacity="1.000000" stroke="none" 
	d="
M615.096375,497.230591 
	C610.123474,502.511322 604.991272,507.407715 598.999207,513.124451 
	C598.999207,504.999756 598.999207,497.954742 599.082642,490.446045 
	C601.350586,490.808716 603.538208,491.626984 605.718506,492.464233 
	C607.018005,492.963257 608.341492,493.418976 609.590881,494.024750 
	C611.403015,494.903320 613.157837,495.899963 615.096375,497.230591 
z"/>
<path fill="#F3F3F3" opacity="1.000000" stroke="none" 
	d="
M780.874512,487.028870 
	C776.780701,487.155548 772.741577,486.831421 768.225525,486.469025 
	C768.225525,490.464996 768.225525,493.848999 768.225525,497.083221 
	C765.639465,497.891724 763.500854,498.560333 761.229065,499.610199 
	C759.637634,499.916412 758.179260,499.841431 755.281250,499.692383 
	C756.378235,496.847321 756.958923,494.478851 758.149109,492.471924 
	C759.648132,489.944183 761.522400,487.605499 763.452576,485.373596 
	C767.816467,480.327881 773.935913,483.226379 779.207703,482.295990 
	C779.519958,482.240875 780.343567,485.083710 780.874512,487.028870 
z"/>
<path fill="#F3F3F3" opacity="1.000000" stroke="none" 
	d="
M718.825562,504.222931 
	C719.940308,505.664276 720.843872,507.396179 721.935547,509.488708 
	C727.926025,507.190186 734.152771,504.046539 740.505859,508.045898 
	C742.147705,509.079468 742.848022,511.608765 744.418457,514.162720 
	C737.157166,514.810730 730.995239,515.360596 724.412354,515.901611 
	C724.179382,513.114868 723.749329,511.022003 720.165588,510.887909 
	C718.813843,510.837311 717.507385,509.578125 716.180237,508.869873 
	C716.991577,507.417725 717.802979,505.965576 718.825562,504.222931 
z"/>
<path fill="#F3F3F3" opacity="1.000000" stroke="none" 
	d="
M492.044250,509.976593 
	C492.265900,514.086548 492.582855,518.288635 491.945068,522.340454 
	C491.278412,526.575623 488.144623,528.834167 483.832550,529.169067 
	C479.601776,529.497620 476.221893,528.342651 475.024200,523.364319 
	C477.557159,522.216431 480.218292,521.737305 482.514282,520.551453 
	C483.935913,519.817200 484.790710,517.998474 485.921356,516.684998 
	C487.845306,514.449951 489.786163,512.229370 492.044250,509.976593 
z"/>
<path fill="#2991D2" opacity="1.000000" stroke="none" 
	d="
M527.262085,489.898438 
	C523.760071,489.770325 520.508972,489.400421 516.953247,488.877197 
	C514.043640,485.562012 513.458252,481.872772 516.608215,479.267303 
	C518.556030,477.656097 522.159180,476.827148 524.605408,477.403503 
	C526.756226,477.910278 529.304260,480.609253 529.870117,482.805573 
	C530.372986,484.757233 528.395569,487.347992 527.262085,489.898438 
z"/>
<path fill="#FCFCFC" opacity="1.000000" stroke="none" 
	d="
M354.992706,480.756775 
	C352.724152,484.341248 350.609406,488.015808 345.089355,484.112823 
	C345.399078,486.234436 345.549042,487.261566 345.704346,488.648132 
	C342.590942,487.156128 339.472229,485.304657 336.146790,483.172150 
	C337.179321,480.012939 338.418549,477.134766 339.830597,473.855225 
	C342.481537,475.378082 344.849152,476.738190 347.812286,478.440369 
	C347.812286,476.566711 347.812286,475.227692 347.817383,473.475952 
	C350.199280,475.508179 352.576111,477.953156 354.992706,480.756775 
z"/>
<path fill="#FCFCFC" opacity="1.000000" stroke="none" 
	d="
M331.052734,568.018616 
	C334.125031,564.313354 337.534088,560.763855 341.183289,557.022217 
	C345.720734,557.404602 346.826263,561.102966 346.720276,564.124878 
	C346.623169,566.893433 344.745392,569.921936 342.835052,572.128418 
	C342.173462,572.892578 338.978210,571.759460 337.087402,571.082031 
	C335.096436,570.368774 333.281403,569.164246 331.052734,568.018616 
z"/>
<path fill="#FCFCFC" opacity="1.000000" stroke="none" 
	d="
M351.685852,541.018433 
	C353.170197,535.908386 355.022003,530.805481 357.013000,525.349243 
	C363.678864,526.560425 367.111023,535.696472 362.652649,540.540405 
	C361.330170,541.977295 358.426239,542.240356 356.191589,542.449341 
	C354.868103,542.573181 353.436371,541.539124 351.685852,541.018433 
z"/>
<path fill="#F3F3F3" opacity="1.000000" stroke="none" 
	d="
M461.277283,506.980865 
	C461.739990,511.684814 461.802948,516.394958 461.778259,521.565918 
	C460.188354,522.785034 458.711945,523.600952 457.177673,524.287537 
	C455.054138,525.237854 452.887054,526.090942 450.346954,526.973389 
	C451.178741,520.973633 452.402222,514.986206 453.643433,508.564819 
	C456.066620,507.749664 458.472107,507.368347 461.277283,506.980865 
z"/>
<path fill="#FCFCFC" opacity="1.000000" stroke="none" 
	d="
M597.054077,540.374817 
	C597.639893,538.763428 598.953796,537.391968 598.804932,536.203918 
	C598.044556,530.138672 600.072571,525.607483 605.774963,522.453918 
	C608.301514,525.979492 610.950317,529.675659 613.681885,533.689270 
	C609.483887,533.639160 605.795532,533.913147 603.470398,538.659790 
	C602.791382,540.045959 599.306335,540.057617 597.054077,540.374817 
z"/>
<path fill="#FCFCFC" opacity="1.000000" stroke="none" 
	d="
M218.328278,445.982025 
	C214.331100,451.550781 209.954163,457.110229 205.308929,462.874146 
	C202.081863,459.340790 200.568527,455.272003 203.177475,450.810364 
	C205.189026,447.370331 213.552414,444.824951 218.328278,445.982025 
z"/>
<path fill="#FCFCFC" opacity="1.000000" stroke="none" 
	d="
M218.006622,564.930420 
	C221.817551,567.482361 225.446350,570.356506 229.296097,573.505249 
	C228.188873,574.753357 226.873993,575.745667 225.530258,576.697205 
	C219.258820,581.138000 213.942993,579.176697 213.369644,571.663208 
	C213.216125,569.651367 216.252533,567.396118 218.006622,564.930420 
z"/>
<path fill="#FCFCFC" opacity="1.000000" stroke="none" 
	d="
M672.919250,484.904114 
	C665.895996,484.911560 658.908203,484.514709 651.459900,484.025391 
	C655.306641,478.191986 662.791809,475.489624 669.278442,477.243958 
	C673.258545,478.320374 674.629822,480.611328 672.919250,484.904114 
z"/>
<path fill="#FCFCFC" opacity="1.000000" stroke="none" 
	d="
M359.792816,502.919006 
	C358.577301,497.519073 357.847626,492.158997 357.133453,486.397766 
	C364.385071,486.572998 369.715393,494.527161 366.595093,500.847778 
	C365.903229,502.249329 362.456757,502.291016 359.792816,502.919006 
z"/>
<path fill="#FCFCFC" opacity="1.000000" stroke="none" 
	d="
M417.138275,541.172913 
	C421.792419,544.274414 426.375763,547.778137 431.223083,551.529602 
	C425.196045,558.255371 419.477234,557.925171 416.121155,550.266235 
	C415.107025,547.951843 416.679718,544.503906 417.138275,541.172913 
z"/>
<path fill="#FCFCFC" opacity="1.000000" stroke="none" 
	d="
M617.157227,539.773682 
	C622.139404,539.510376 627.064514,539.657227 632.448914,539.778320 
	C633.850464,546.058411 629.364624,548.075500 624.718750,548.869934 
	C622.575317,549.236511 619.551880,547.596802 617.797852,545.943359 
	C616.716431,544.923889 617.276794,542.162903 617.157227,539.773682 
z"/>
<path fill="#F3F3F3" opacity="1.000000" stroke="none" 
	d="
M450.995117,538.579529 
	C449.575439,539.693909 448.105652,540.304626 446.760437,541.120667 
	C442.005829,544.004944 437.494781,543.715088 433.826416,541.036865 
	C438.753448,536.883240 443.667603,532.740479 448.831604,528.391968 
	C449.721680,531.514099 450.361908,534.842041 450.995117,538.579529 
z"/>
<path fill="#FCFCFC" opacity="1.000000" stroke="none" 
	d="
M820.000000,540.884827 
	C824.683838,539.367981 829.384949,538.203735 834.444397,536.971069 
	C836.979919,541.670776 835.007324,545.581726 829.359985,547.693481 
	C825.046997,549.306274 821.823364,547.078735 820.000000,540.884827 
z"/>
<path fill="#FCFCFC" opacity="1.000000" stroke="none" 
	d="
M462.986694,531.289185 
	C465.673462,535.907654 469.567932,539.213440 475.640442,540.223450 
	C475.338867,541.844482 475.051483,543.804871 473.918884,544.726013 
	C472.236694,546.094116 470.018311,547.044312 467.889099,547.459839 
	C467.322632,547.570312 466.199829,545.109131 465.422028,543.776306 
	C464.689392,542.520996 464.312073,540.978760 463.362366,539.945068 
	C460.851257,537.212036 460.689880,534.539490 462.986694,531.289185 
z"/>
<path fill="#FCFCFC" opacity="1.000000" stroke="none" 
	d="
M295.806152,425.486542 
	C288.617554,425.137482 281.268097,424.464478 273.458160,423.712097 
	C278.578674,421.075928 283.630768,417.190277 290.410797,417.932129 
	C295.202545,418.456451 294.331299,422.460632 295.806152,425.486542 
z"/>
<path fill="#FCFCFC" opacity="1.000000" stroke="none" 
	d="
M247.989319,427.760040 
	C243.579041,430.293091 239.120041,432.446045 234.327362,434.677124 
	C233.828827,432.522400 233.028366,430.072845 233.693237,428.122955 
	C234.260834,426.458282 236.408447,424.395844 238.039062,424.222748 
	C241.563141,423.848602 245.810471,422.780701 247.989319,427.760040 
z"/>
<path fill="#F3F3F3" opacity="1.000000" stroke="none" 
	d="
M645.006226,540.361450 
	C646.602600,539.884155 648.334900,540.163025 649.756897,539.623718 
	C650.833618,539.215393 651.514587,537.763184 652.507446,536.362549 
	C655.731812,536.042786 658.492798,536.609558 657.951599,540.667969 
	C657.475281,544.239685 656.083923,546.819580 651.771912,547.067444 
	C647.025085,547.340271 644.982117,545.315918 645.006226,540.361450 
z"/>
<path fill="#FCFCFC" opacity="1.000000" stroke="none" 
	d="
M397.362854,495.995605 
	C396.226898,500.734497 394.705475,505.474365 393.087036,510.606659 
	C390.887756,511.405304 388.798279,512.003967 386.678497,512.144348 
	C385.443909,512.226074 384.160675,511.573669 382.914673,510.438538 
	C387.579559,509.170227 388.941071,506.357208 389.510101,502.305023 
	C390.058746,498.397980 392.333618,495.543701 397.362854,495.995605 
z"/>
<path fill="#FCFCFC" opacity="1.000000" stroke="none" 
	d="
M394.979919,523.300476 
	C397.683319,526.712891 400.341675,530.488037 403.083282,534.599365 
	C401.913544,535.298584 400.666107,535.940125 399.406433,535.965149 
	C396.983673,536.013245 392.838440,536.380310 392.465942,535.423950 
	C391.545013,533.059448 392.110321,529.981934 392.566681,527.273193 
	C392.785583,525.973755 394.110748,524.860718 394.979919,523.300476 
z"/>
<path fill="#FCFCFC" opacity="1.000000" stroke="none" 
	d="
M323.916138,437.864563 
	C319.071991,435.711487 314.261047,433.109589 309.201477,430.262817 
	C311.853943,429.138184 314.858276,427.292572 317.633728,427.589081 
	C322.682831,428.128448 324.044983,430.922424 323.916138,437.864563 
z"/>
<path fill="#FCFCFC" opacity="1.000000" stroke="none" 
	d="
M423.019104,482.717285 
	C418.939819,484.011108 414.852081,484.900909 410.380615,485.816772 
	C410.119873,481.450378 413.337708,477.590515 417.515320,477.095886 
	C421.307861,476.646851 423.090393,478.559845 423.019104,482.717285 
z"/>
<path fill="#FCFCFC" opacity="1.000000" stroke="none" 
	d="
M645.947144,483.534210 
	C643.928528,484.025940 641.855957,484.147797 639.234558,484.301971 
	C639.234558,486.032867 639.234558,487.598999 639.134033,489.582397 
	C633.846375,489.119141 633.133240,488.538330 631.323059,483.719757 
	C636.529907,479.076019 641.511597,478.886139 645.947144,483.534210 
z"/>
<path fill="#FCFCFC" opacity="1.000000" stroke="none" 
	d="
M546.988525,537.561646 
	C550.084534,538.206055 553.174255,539.213928 556.635620,540.372437 
	C554.209351,546.860352 549.633789,548.516296 544.056396,544.955627 
	C545.017090,542.647217 545.999695,540.286194 546.988525,537.561646 
z"/>
<path fill="#FCFCFC" opacity="1.000000" stroke="none" 
	d="
M195.791351,483.057495 
	C195.274551,488.808228 194.334869,494.536316 193.238495,500.632751 
	C189.223465,500.253998 187.817886,496.421600 189.370163,494.478180 
	C192.204117,490.930237 187.431229,483.523590 195.791351,483.057495 
z"/>
<path fill="#FCFCFC" opacity="1.000000" stroke="none" 
	d="
M834.127319,499.830750 
	C830.436584,498.797302 827.064758,497.502106 823.346191,496.067993 
	C824.382141,491.558533 827.997070,489.487732 832.488220,491.191589 
	C836.781067,492.820190 834.845337,496.511230 834.127319,499.830750 
z"/>
<path fill="#FCFCFC" opacity="1.000000" stroke="none" 
	d="
M369.354919,503.546265 
	C371.998322,501.283234 372.744476,503.002777 372.937195,505.021362 
	C373.363831,509.489838 374.055542,513.663635 378.887177,515.721741 
	C379.429169,515.952637 379.843872,518.071899 379.648132,518.188049 
	C378.344482,518.962219 376.886902,519.760132 375.422607,519.885132 
	C374.379028,519.974060 372.271515,518.645508 372.292633,518.591064 
	C374.470062,512.976929 370.172638,508.766907 369.354919,503.546265 
z"/>
<path fill="#F3F3F3" opacity="1.000000" stroke="none" 
	d="
M495.017731,496.285522 
	C494.310791,496.922028 493.598633,497.173279 492.650208,497.728546 
	C491.751495,498.016754 490.951050,498.236206 490.451355,497.943024 
	C488.623444,496.870483 486.895721,495.627136 485.130249,494.448120 
	C486.731720,492.985626 488.374207,490.326538 489.923676,490.379669 
	C491.654449,490.439056 493.333557,492.925110 494.949738,494.445831 
	C495.202789,494.683929 495.002930,495.403381 495.017731,496.285522 
z"/>
<path fill="#FCFCFC" opacity="1.000000" stroke="none" 
	d="
M446.567505,492.209351 
	C443.583496,490.532135 440.962128,488.685577 438.117493,486.608704 
	C439.293060,482.192474 442.243835,482.296661 445.196198,484.204224 
	C448.070038,486.060974 450.567963,488.507782 446.567505,492.209351 
z"/>
<path fill="#F3F3F3" opacity="1.000000" stroke="none" 
	d="
M841.753906,512.023804 
	C840.190063,509.596222 839.019287,507.048737 837.748779,504.204926 
	C838.553772,502.977936 839.458557,502.047272 840.363342,501.116638 
	C841.702087,502.432983 843.666809,503.535553 844.209351,505.123871 
	C844.790833,506.826355 844.124268,509.001556 843.788696,510.933319 
	C843.718140,511.339661 842.718506,511.584595 841.753906,512.023804 
z"/>
<path fill="#FCFCFC" opacity="1.000000" stroke="none" 
	d="
M186.778839,534.116638 
	C189.042480,537.111328 190.904907,540.156860 192.933319,543.484619 
	C190.296188,548.070007 187.202560,545.910461 186.047104,543.066956 
	C185.028122,540.559265 186.182785,537.168396 186.778839,534.116638 
z"/>
<path fill="#FCFCFC" opacity="1.000000" stroke="none" 
	d="
M566.042114,540.491211 
	C568.430786,539.138489 570.861694,538.131897 573.635010,537.034973 
	C574.078674,539.291199 575.058777,542.118835 574.093811,543.881714 
	C572.221375,547.302307 568.426025,545.771179 566.042114,540.491211 
z"/>
<path fill="#FCFCFC" opacity="1.000000" stroke="none" 
	d="
M558.002869,495.346191 
	C555.257080,496.472595 552.508606,497.205750 549.381287,497.972473 
	C549.005676,494.358612 547.906128,489.656372 554.226929,491.149902 
	C555.701904,491.498383 556.753662,493.637604 558.002869,495.346191 
z"/>
<path fill="#FCFCFC" opacity="1.000000" stroke="none" 
	d="
M708.224182,493.956055 
	C707.781616,490.299133 707.691650,486.598846 707.722290,482.450989 
	C714.119324,482.964539 715.028809,484.735748 711.742432,489.788269 
	C710.800354,491.236664 709.638062,492.541840 708.224182,493.956055 
z"/>
<path fill="#FCFCFC" opacity="1.000000" stroke="none" 
	d="
M200.996796,548.581055 
	C204.486374,549.181702 207.978012,550.158386 211.788025,551.273743 
	C212.013992,554.547058 210.012970,555.321289 207.405411,554.954956 
	C203.939835,554.468140 200.956238,553.278137 200.996796,548.581055 
z"/>
<path fill="#FCFCFC" opacity="1.000000" stroke="none" 
	d="
M161.762756,650.959351 
	C158.790039,651.661987 155.711060,652.669556 153.059174,651.995850 
	C151.791107,651.673767 151.333023,648.163208 151.208481,645.553711 
	C153.276688,649.279053 155.688049,650.908752 159.703751,649.163696 
	C160.128662,648.979065 161.109192,650.073059 161.762756,650.959351 
z"/>
<path fill="#FCFCFC" opacity="1.000000" stroke="none" 
	d="
M278.051208,600.648193 
	C280.030945,599.455017 282.065369,598.603271 284.431488,597.597168 
	C285.944336,599.745361 288.786224,602.281189 284.859558,604.337402 
	C281.546539,606.072327 279.321228,604.213684 278.051208,600.648193 
z"/>
<path fill="#FCFCFC" opacity="1.000000" stroke="none" 
	d="
M704.961304,479.701355 
	C702.622620,480.162781 700.245972,480.252808 697.435791,480.232758 
	C697.865662,478.768524 699.138489,476.149109 699.523682,476.273682 
	C701.451416,476.897308 703.146545,478.240051 704.961304,479.701355 
z"/>
<path fill="#F3F3F3" opacity="1.000000" stroke="none" 
	d="
M725.035889,497.278564 
	C723.318115,498.410980 721.492798,499.180603 719.328979,499.912354 
	C719.761108,498.083557 720.531738,496.292633 721.302429,494.501709 
	C722.511108,495.306396 723.719727,496.111084 725.035889,497.278564 
z"/>
<path fill="#F3F3F3" opacity="1.000000" stroke="none" 
	d="
M829.891479,526.980408 
	C827.983887,528.208191 825.852356,529.112549 823.356323,529.951782 
	C823.696777,525.667847 826.238342,525.245178 829.891479,526.980408 
z"/>
<path fill="#F3F3F3" opacity="1.000000" stroke="none" 
	d="
M475.031738,507.926575 
	C474.628693,506.282898 474.527832,504.527405 474.580414,502.354065 
	C478.456635,503.536194 477.548676,505.608795 475.031738,507.926575 
z"/>
<path fill="#FCFCFC" opacity="1.000000" stroke="none" 
	d="
M377.538025,510.484070 
	C378.757599,510.146179 379.751648,510.062439 380.745667,509.978699 
	C380.187134,511.067505 379.628571,512.156311 379.070007,513.245117 
	C378.484192,512.409485 377.898346,511.573822 377.538025,510.484070 
z"/>
<path fill="#F3F3F3" opacity="1.000000" stroke="none" 
	d="
M468.962250,496.226135 
	C467.622650,496.612488 466.211304,496.686371 464.385681,496.659607 
	C465.228973,493.431305 466.835419,492.962982 468.962250,496.226135 
z"/>
<path fill="#F3F3F3" opacity="1.000000" stroke="none" 
	d="
M835.868347,529.047607 
	C835.020508,528.683228 834.199585,527.982971 833.231445,526.991272 
	C834.021240,527.370422 834.958252,528.041138 835.868347,529.047607 
z"/>
<path fill="#FCFCFC" opacity="1.000000" stroke="none" 
	d="
M151.394775,657.954468 
	C151.790726,657.712952 152.184647,657.714661 152.576385,657.744812 
	C152.587372,657.745728 152.574905,658.051086 152.573364,658.214417 
	C152.179718,658.210205 151.786072,658.205994 151.394775,657.954468 
z"/>
<path fill="#F3F3F3" opacity="1.000000" stroke="none" 
	d="
M623.634644,496.330292 
	C622.863586,496.575989 621.854431,496.663940 620.478516,496.636353 
	C621.206665,496.404724 622.301636,496.288635 623.634644,496.330292 
z"/>
<path fill="#F3F3F3" opacity="1.000000" stroke="none" 
	d="
M811.102051,523.921021 
	C811.024109,523.383972 811.207214,522.715149 811.703003,522.134155 
	C811.798157,522.744385 811.580627,523.266785 811.102051,523.921021 
z"/>
<path fill="#F3F3F3" opacity="1.000000" stroke="none" 
	d="
M767.136292,507.608246 
	C767.335571,507.205841 767.595886,507.230164 767.816284,507.772217 
	C767.582642,507.975922 767.389587,507.890930 767.136292,507.608246 
z"/>
<path fill="#F3F3F3" opacity="1.000000" stroke="none" 
	d="
M631.831543,496.982758 
	C631.817261,497.270477 631.594116,497.533447 631.121338,497.877258 
	C630.913269,497.780701 630.954773,497.603333 631.100037,497.173035 
	C631.203735,496.920105 631.622681,496.958008 631.831543,496.982758 
z"/>
<path fill="#FCFCFC" opacity="1.000000" stroke="none" 
	d="
M781.857666,497.595093 
	C781.651245,497.697449 781.326477,497.621674 781.002563,497.273071 
	C781.290894,497.064789 781.536194,497.203705 781.857666,497.595093 
z"/>
<path fill="#FCFCFC" opacity="1.000000" stroke="none" 
	d="
M416.169678,540.360474 
	C416.350800,540.230286 416.677612,540.295837 417.117462,540.594971 
	C416.884125,540.876526 416.579041,540.785767 416.169678,540.360474 
z"/>
<path fill="#F3F3F3" opacity="1.000000" stroke="none" 
	d="
M630.992310,496.516724 
	C631.067444,496.606354 630.608765,496.550293 630.446533,496.386353 
	C630.534058,496.172821 630.744995,496.241058 630.992310,496.516724 
z"/>
<path fill="#FCFCFC" opacity="1.000000" stroke="none" 
	d="
M578.377686,532.851929 
	C578.189819,532.636780 578.321106,532.385742 578.793091,532.119995 
	C578.924011,532.315491 578.778381,532.552429 578.377686,532.851929 
z"/>
<path fill="#FCFCFC" opacity="1.000000" stroke="none" 
	d="
M579.247070,531.862427 
	C579.148376,531.669678 579.272522,531.346924 579.639465,530.916748 
	C579.744751,531.117004 579.607300,531.424683 579.247070,531.862427 
z"/>
<path fill="#FCFCFC" opacity="1.000000" stroke="none" 
	d="
M567.757324,496.565552 
	C567.584290,496.702026 567.211609,496.638550 566.648560,496.352997 
	C566.824768,496.209137 567.191162,496.287384 567.757324,496.565552 
z"/>
<path fill="#F3F3F3" opacity="1.000000" stroke="none" 
	d="
M616.824524,496.511230 
	C616.804504,496.700653 616.655884,496.781647 616.256226,496.900635 
	C616.235535,496.760040 616.465759,496.581421 616.824524,496.511230 
z"/>
<path fill="#F3F3F3" opacity="1.000000" stroke="none" 
	d="
M449.352600,527.907593 
	C449.113403,527.675537 449.234039,527.382751 449.741455,527.055420 
	C449.931061,527.281433 449.792419,527.556824 449.352600,527.907593 
z"/>
<path fill="#F3F3F3" opacity="1.000000" stroke="none" 
	d="
M232.984009,632.871948 
	C240.506012,631.512634 247.598755,629.636414 254.786850,629.139343 
	C266.801270,628.308472 278.884521,627.922852 290.924377,628.141968 
	C308.087524,628.454224 324.596039,631.751648 339.187134,641.608032 
	C345.076691,645.586426 346.162750,655.666870 340.773163,661.494263 
	C338.277771,664.192322 334.907532,666.420715 331.513000,667.888367 
	C317.648071,673.882507 303.189911,676.627808 287.946838,676.170715 
	C278.737823,675.894592 269.482269,677.699951 260.240387,677.785461 
	C254.863846,677.835144 249.359543,676.775818 244.114578,675.429260 
	C235.822144,673.300354 227.640427,670.683350 219.534637,667.913574 
	C216.451263,666.859985 213.383087,665.205200 210.879639,663.133606 
	C206.418808,659.442322 206.930496,654.356934 208.391602,649.430786 
	C209.799347,644.684631 212.088211,641.001526 217.586838,639.476196 
	C222.791077,638.032349 227.609467,635.197754 232.984009,632.871948 
z"/>
<path fill="#2991D2" opacity="1.000000" stroke="none" 
	d="
M286.585815,512.587463 
	C280.842316,516.734131 275.380341,520.658997 269.918335,524.583801 
	C269.495636,524.453247 269.072937,524.322693 268.650238,524.192139 
	C270.770660,516.034241 266.026001,512.450562 260.181396,508.990601 
	C253.938873,505.295105 251.615662,498.737610 251.313263,491.913696 
	C250.629105,476.475739 253.422684,461.443176 257.889069,446.707245 
	C258.157501,445.821564 258.857880,445.066803 260.538452,444.312225 
	C260.662048,445.931152 260.894501,447.550262 260.891357,449.168915 
	C260.872589,458.830261 260.796021,468.491455 260.748596,478.152802 
	C260.742065,479.484833 260.425690,480.969696 260.903809,482.111115 
	C261.517303,483.575623 262.789734,484.764099 263.778259,486.071533 
	C264.850128,484.700958 266.760925,483.385895 266.855896,481.950684 
	C267.416260,473.480255 267.508179,464.980042 267.853821,456.493805 
	C268.031219,452.138641 268.407928,447.791565 268.694550,443.440857 
	C269.366699,443.375916 270.038818,443.310974 270.710968,443.246063 
	C271.138977,445.126190 271.865692,446.993805 271.945251,448.888550 
	C272.378693,459.205322 272.633698,469.529449 273.002838,479.849182 
	C273.055542,481.322937 273.181396,482.865997 273.686890,484.222961 
	C273.963623,484.965851 275.101379,485.820892 275.859375,485.828949 
	C276.606812,485.836945 277.776459,484.984772 278.032898,484.254395 
	C278.569214,482.726868 278.817047,481.034882 278.849091,479.403839 
	C279.035736,469.911255 279.066498,460.415405 279.289368,450.923920 
	C279.344910,448.557892 279.914520,446.203918 280.247864,443.844421 
	C280.755524,443.781311 281.263214,443.718201 281.770874,443.655090 
	C282.228638,445.159607 283.007904,446.646362 283.092377,448.171570 
	C283.672272,458.645050 284.100220,469.126862 284.596222,479.605103 
	C284.659058,480.932159 284.580292,482.350464 285.036865,483.547272 
	C285.394196,484.484009 286.522369,485.815033 287.230225,485.769165 
	C288.304718,485.699554 289.820038,484.809235 290.229340,483.868011 
	C290.857147,482.424408 290.870056,480.639679 290.855072,479.002411 
	C290.766510,469.342651 290.577820,459.683807 290.465363,450.024170 
	C290.444672,448.244354 290.618835,446.462280 291.685516,444.325226 
	C292.350159,445.263214 293.293060,446.109406 293.637299,447.153076 
	C298.152039,460.840973 300.526855,474.900208 300.464569,489.321869 
	C300.420227,499.588379 295.143799,506.892792 286.585815,512.587463 
z"/>
<path fill="#FCFCFC" opacity="1.000000" stroke="none" 
	d="
M431.447601,527.721558 
	C420.334320,531.851685 411.531006,528.323975 407.853210,518.575623 
	C404.341644,509.267944 408.527130,499.142303 417.272827,495.787506 
	C425.408539,492.666656 434.797943,496.150879 438.616760,503.707794 
	C442.953613,512.289856 440.209900,521.875793 431.447601,527.721558 
z"/>
<path fill="#FCFCFC" opacity="1.000000" stroke="none" 
	d="
M652.309143,500.168701 
	C652.372986,498.237335 652.438293,496.782898 652.512817,495.125031 
	C657.260803,495.125031 661.744751,494.775543 666.149780,495.215607 
	C671.374817,495.737610 674.344299,499.727478 674.111572,504.924500 
	C673.899841,509.652832 670.963928,512.851196 665.863342,513.221313 
	C661.596924,513.530945 657.290283,513.284912 652.310669,513.284912 
	C652.310669,508.868866 652.310669,504.757263 652.309143,500.168701 
z"/>
<path fill="#F3F3F3" opacity="1.000000" stroke="none" 
	d="
M818.292847,505.903564 
	C826.207153,506.156403 828.733826,508.132996 829.664246,514.622986 
	C829.053406,514.722961 828.439270,514.908691 827.824524,514.910950 
	C821.870178,514.932922 815.915649,514.924072 809.226440,514.924072 
	C810.263794,509.639130 813.051636,506.861511 818.292847,505.903564 
z"/>
<path fill="#F3F3F3" opacity="1.000000" stroke="none" 
	d="
M737.872864,522.054932 
	C739.926636,522.168823 741.538635,522.278320 744.782227,522.498657 
	C743.027039,525.643311 742.265137,529.078613 740.295288,530.040466 
	C737.513977,531.398621 733.795410,531.345032 730.571655,531.004211 
	C729.494568,530.890381 727.858765,527.949463 728.023254,526.473022 
	C728.189270,524.983826 730.034363,523.164368 731.580994,522.485718 
	C733.269531,521.744751 735.459595,522.146729 737.872864,522.054932 
z"/>
</svg>